<svg xmlns="http://www.w3.org/2000/svg" width="19.805" height="19.055" viewBox="0 0 19.805 19.055">
  <path id="tags-solid" d="M11.18,19.055h0l-.538-.515L9.187,17.062l1.055-1.055.938.938,7.125-7.078V3.75h-.751V2.25H19.8V10.5l-.211.234-7.9,7.8-.515.515ZM7.8,16.8h0l-.538-.515L.516,9.539,0,9l.516-.539L8.766.211,9,0h7.8V7.8l-.212.234-8.249,8.25-.538.515ZM9.633,1.5h0L2.133,9,7.8,14.672l7.5-7.5V1.5Zm3.422,3a.75.75,0,1,1,.751-.75A.751.751,0,0,1,13.055,4.5Z" transform="translate(0 0)" fill="#8a8a8a"/>
</svg>
