<svg id="icons_arrow-left-solid" data-name="icons/arrow-left-solid" xmlns="http://www.w3.org/2000/svg" width="24" height="24" viewBox="0 0 24 24">
  <path id="life-ring-solid" d="M9,18a9,9,0,1,1,9-9A9.01,9.01,0,0,1,9,18Zm-.75-3.821v2.273c.2.019.481.047.75.047s.519-.025.749-.047V14.179l-.021,0A5.289,5.289,0,0,1,9,14.25,5.267,5.267,0,0,1,8.25,14.179Zm5.484-2.929a5.261,5.261,0,0,1-2.484,2.484v2.438a7.522,7.522,0,0,0,4.922-4.922Zm-11.906,0A7.522,7.522,0,0,0,6.75,16.172V13.734A5.262,5.262,0,0,1,4.266,11.25ZM9,5.25A3.75,3.75,0,1,0,12.75,9,3.755,3.755,0,0,0,9,5.25Zm5.179,3a5.267,5.267,0,0,1,.07.75,5.267,5.267,0,0,1-.07.75h2.273c.019-.2.047-.481.047-.75s-.025-.519-.047-.749Zm-12.632,0h0c-.022.231-.047.492-.047.75s.025.519.047.749H3.82l0-.021A4.854,4.854,0,0,1,3.8,8.25H1.547Zm9.7-6.422V4.266A5.262,5.262,0,0,1,13.734,6.75h2.438A7.522,7.522,0,0,0,11.25,1.828Zm-4.5,0a7.483,7.483,0,0,0-4.9,4.922H4.266A5.278,5.278,0,0,1,6.75,4.266ZM9,3.75a5.267,5.267,0,0,1,.75.07V1.547C9.547,1.528,9.269,1.5,9,1.5s-.519.025-.749.047V3.82l.021,0A5.289,5.289,0,0,1,9,3.75Z" transform="translate(3 3)" fill="#8a8a8a"/>
</svg>
