<svg id="icons_arrow-left-solid" data-name="icons/arrow-left-solid" xmlns="http://www.w3.org/2000/svg" width="24" height="24" viewBox="0 0 24 24">
  <path id="globe-americas-solid" d="M9.75,19.5A9.75,9.75,0,1,1,19.5,9.75,9.761,9.761,0,0,1,9.75,19.5ZM4.5,3.391A8.243,8.243,0,0,0,9.018,17.963L10.5,14.7,9,13.5V12l.75-.75V10.5L10.5,9.75H12l1.5,1.5h.75l1.5.75v.751l-1.029,2.068-.824.824-3.009,2.268a8.177,8.177,0,0,0,2.9-.977c.156-.088.36-.2.555-.337l.042-.031.042-.031c.216-.149.389-.279.546-.408.018-.014.035-.029.051-.044l.021-.019c.175-.146.346-.3.509-.463l.034-.036.034-.036c.175-.178.325-.343.459-.5l.037-.046.03-.037c.148-.183.279-.358.4-.536l.072-.106c.12-.182.233-.368.335-.553.028-.046.053-.09.074-.13.088-.166.176-.35.269-.562L17.326,13c.016-.035.032-.07.047-.106.069-.167.135-.346.207-.564l.024-.072c.013-.039.027-.078.039-.117.061-.2.111-.409.147-.565l.018-.078c.011-.045.022-.091.031-.137.04-.2.067-.408.089-.586,0-.029.008-.058.013-.086s.014-.084.018-.126A8.139,8.139,0,0,0,18,9.75h-.75V9L16.5,7.5V5.021a8.3,8.3,0,0,0-4.5-3.2V2.25H10.5V1.538c-.28-.025-.519-.038-.751-.038a8.3,8.3,0,0,0-1.828.211L9,2.25l2.25,1.5V4.5L9.75,5.625,9,7.5H6.75V9L9,9.75V10.5H8.25L4.5,9,3.75,6.15V4.5l.75-.75ZM10.5,9H9V8.25h1.5V9Z" transform="translate(2.25 2.25)" fill="#8a8a8a"/>
</svg>
