<svg id="icons_arrow-left-solid" data-name="icons/arrow-left-solid" xmlns="http://www.w3.org/2000/svg" width="24" height="24" viewBox="0 0 24 24">
  <path id="user-cog-solid" d="M14.926,20.25h-1.5V18.675a3.749,3.749,0,0,1-1.276-.526l-1.125,1.125L9.976,18.226,11.1,17.1l0,0a5.033,5.033,0,0,1-.524-1.347H9v-1.5h1.725a2.689,2.689,0,0,1,.525-1.35l-1.125-1.125,1.05-1.049L12.3,11.85a3.748,3.748,0,0,1,1.274-.526V9.75h1.5v1.575a3.733,3.733,0,0,1,1.275.526l1.125-1.125,1.049,1.049L17.4,12.9l0,.008a5.012,5.012,0,0,1,.522,1.342H19.5v1.5H17.774A2.686,2.686,0,0,1,17.25,17.1l1.125,1.125-1.05,1.049L16.2,18.149a3.748,3.748,0,0,1-1.274.526v1.574Zm-.676-7.5A2.25,2.25,0,1,0,16.5,15,2.2,2.2,0,0,0,14.25,12.75ZM1.5,16.5H0a7.507,7.507,0,0,1,4.553-6.89,5.235,5.235,0,0,1-2.3-4.36,5.25,5.25,0,1,1,10.5,0A5.219,5.219,0,0,1,7.5,10.5a6.007,6.007,0,0,0-6,6Zm6-15A3.71,3.71,0,0,0,3.75,5.25,3.71,3.71,0,0,0,7.5,9a3.71,3.71,0,0,0,3.75-3.75A3.71,3.71,0,0,0,7.5,1.5Zm6.75,14.25a.646.646,0,0,1-.275-.065A.811.811,0,0,1,13.5,15a.64.64,0,0,1,.065-.275.842.842,0,0,1,.169-.24.89.89,0,0,1,.24-.17.646.646,0,0,1,.275-.065.75.75,0,1,1,0,1.5Z" transform="translate(4.5 3.75)" fill="#8a8a8a"/>
</svg>
